<svg width="100" height="25" viewBox="0 0 100 25" fill="none" xmlns="http://www.w3.org/2000/svg">
<path d="M25.282 17C24.598 17 24.064 16.862 23.68 16.586C23.3 16.31 23.062 15.884 22.966 15.308C22.95 15.132 22.986 15 23.074 14.912C23.162 14.824 23.29 14.78 23.458 14.78C23.626 14.78 23.748 14.82 23.824 14.9C23.904 14.98 23.958 15.104 23.986 15.272C24.046 15.548 24.174 15.738 24.37 15.842C24.57 15.942 24.874 15.992 25.282 15.992H27.01C27.526 15.992 27.876 15.9 28.06 15.716C28.248 15.528 28.342 15.18 28.342 14.672C28.342 14.156 28.246 13.804 28.054 13.616C27.862 13.424 27.514 13.328 27.01 13.328H25.522C24.766 13.328 24.204 13.144 23.836 12.776C23.472 12.404 23.29 11.84 23.29 11.084C23.29 10.332 23.47 9.774 23.83 9.41C24.194 9.046 24.754 8.864 25.51 8.864H26.938C27.574 8.864 28.072 8.994 28.432 9.254C28.796 9.514 29.026 9.912 29.122 10.448C29.146 10.62 29.114 10.752 29.026 10.844C28.938 10.932 28.806 10.976 28.63 10.976C28.47 10.976 28.35 10.934 28.27 10.85C28.19 10.766 28.138 10.644 28.114 10.484C28.05 10.248 27.928 10.088 27.748 10.004C27.568 9.916 27.298 9.872 26.938 9.872H25.51C25.03 9.872 24.708 9.958 24.544 10.13C24.38 10.298 24.298 10.616 24.298 11.084C24.298 11.556 24.382 11.88 24.55 12.056C24.718 12.232 25.042 12.32 25.522 12.32H27.01C27.798 12.32 28.384 12.512 28.768 12.896C29.156 13.28 29.35 13.872 29.35 14.672C29.35 15.468 29.158 16.056 28.774 16.436C28.39 16.812 27.802 17 27.01 17H25.282ZM36.4526 19.4C36.1166 19.4 35.9486 19.232 35.9486 18.896V17H33.6206C32.8246 17 32.2326 16.808 31.8446 16.424C31.4606 16.036 31.2686 15.444 31.2686 14.648V13.268C31.2686 12.468 31.4606 11.876 31.8446 11.492C32.2326 11.108 32.8246 10.916 33.6206 10.916H34.0766C34.5246 10.916 34.9026 10.976 35.2106 11.096C35.5226 11.212 35.7686 11.376 35.9486 11.588V11.42C35.9486 11.084 36.1166 10.916 36.4526 10.916C36.7886 10.916 36.9566 11.084 36.9566 11.42V18.896C36.9566 19.232 36.7886 19.4 36.4526 19.4ZM33.6206 15.992H35.9486V12.764C35.9486 12.476 35.7686 12.264 35.4086 12.128C35.0486 11.992 34.6046 11.924 34.0766 11.924H33.6206C33.1006 11.924 32.7466 12.018 32.5586 12.206C32.3706 12.39 32.2766 12.744 32.2766 13.268V14.648C32.2766 15.168 32.3706 15.522 32.5586 15.71C32.7466 15.898 33.1006 15.992 33.6206 15.992ZM44.2818 10.916C44.6178 10.916 44.7858 11.084 44.7858 11.42V16.496C44.7858 16.832 44.6178 17 44.2818 17C43.9458 17 43.7778 16.832 43.7778 16.496V16.298C43.3538 16.766 42.7298 17 41.9058 17H41.5698C40.7738 17 40.1818 16.808 39.7938 16.424C39.4098 16.036 39.2178 15.444 39.2178 14.648V11.42C39.2178 11.084 39.3858 10.916 39.7218 10.916C40.0578 10.916 40.2258 11.084 40.2258 11.42V14.648C40.2258 15.168 40.3198 15.522 40.5078 15.71C40.6998 15.898 41.0538 15.992 41.5698 15.992H41.9058C42.3858 15.992 42.8038 15.936 43.1598 15.824C43.5198 15.712 43.7258 15.54 43.7778 15.308V11.42C43.7778 11.084 43.9458 10.916 44.2818 10.916ZM49.1552 17C48.4832 17 47.9832 16.836 47.6552 16.508C47.3272 16.18 47.1632 15.68 47.1632 15.008C47.1632 14.336 47.3252 13.836 47.6492 13.508C47.9772 13.18 48.4792 13.016 49.1552 13.016H51.6932C51.6692 12.596 51.5592 12.31 51.3632 12.158C51.1672 12.002 50.8312 11.924 50.3552 11.924H49.6592C49.2592 11.924 48.9612 11.952 48.7652 12.008C48.5692 12.06 48.4312 12.156 48.3512 12.296C48.2792 12.464 48.2052 12.58 48.1292 12.644C48.0532 12.708 47.9392 12.74 47.7872 12.74C47.6192 12.74 47.4872 12.694 47.3912 12.602C47.2952 12.506 47.2672 12.38 47.3072 12.224C47.4272 11.772 47.6772 11.442 48.0572 11.234C48.4412 11.022 48.9752 10.916 49.6592 10.916H50.3552C51.1552 10.916 51.7472 11.108 52.1312 11.492C52.5152 11.876 52.7072 12.468 52.7072 13.268V16.496C52.7072 16.832 52.5392 17 52.2032 17C51.8672 17 51.6992 16.832 51.6992 16.496V16.226C51.2712 16.742 50.6472 17 49.8272 17H49.1552ZM49.1552 15.992H49.8272C50.1232 15.992 50.4012 15.966 50.6612 15.914C50.9212 15.858 51.1432 15.758 51.3272 15.614C51.5152 15.47 51.6392 15.264 51.6992 14.996V14.024H49.1552C48.7592 14.024 48.4952 14.09 48.3632 14.222C48.2352 14.354 48.1712 14.616 48.1712 15.008C48.1712 15.404 48.2352 15.668 48.3632 15.8C48.4952 15.928 48.7592 15.992 49.1552 15.992ZM55.5918 17C55.2558 17 55.0878 16.832 55.0878 16.496V11.42C55.0878 11.084 55.2558 10.916 55.5918 10.916C55.9278 10.916 56.0958 11.084 56.0958 11.42V11.888C56.3318 11.568 56.6318 11.326 56.9958 11.162C57.3638 10.998 57.7838 10.916 58.2558 10.916C58.5918 10.916 58.7598 11.084 58.7598 11.42C58.7598 11.756 58.5918 11.924 58.2558 11.924C57.5638 11.924 57.0358 12.052 56.6718 12.308C56.3078 12.564 56.1158 12.902 56.0958 13.322V16.496C56.0958 16.832 55.9278 17 55.5918 17ZM60.6946 14.372V14.66C60.6946 15.176 60.7886 15.528 60.9766 15.716C61.1646 15.9 61.5186 15.992 62.0386 15.992H63.0226C63.4306 15.992 63.7326 15.954 63.9286 15.878C64.1246 15.802 64.2546 15.668 64.3186 15.476C64.3626 15.324 64.4226 15.208 64.4986 15.128C64.5786 15.048 64.6986 15.008 64.8586 15.008C65.0266 15.008 65.1546 15.052 65.2426 15.14C65.3306 15.228 65.3586 15.356 65.3266 15.524C65.2386 16.02 65.0026 16.39 64.6186 16.634C64.2346 16.878 63.7026 17 63.0226 17H62.0386C61.2426 17 60.6506 16.808 60.2626 16.424C59.8786 16.04 59.6866 15.452 59.6866 14.66V13.268C59.6866 12.456 59.8786 11.86 60.2626 11.48C60.6506 11.096 61.2426 10.908 62.0386 10.916H63.0226C63.8226 10.916 64.4146 11.108 64.7986 11.492C65.1826 11.872 65.3746 12.464 65.3746 13.268V13.868C65.3746 14.204 65.2066 14.372 64.8706 14.372H60.6946ZM62.0386 11.924C61.5186 11.916 61.1646 12.006 60.9766 12.194C60.7886 12.382 60.6946 12.74 60.6946 13.268V13.364H64.3666V13.268C64.3666 12.744 64.2726 12.39 64.0846 12.206C63.9006 12.018 63.5466 11.924 63.0226 11.924H62.0386ZM69.008 17C68.5 17 68.098 16.896 67.802 16.688C67.506 16.476 67.316 16.16 67.232 15.74C67.204 15.572 67.236 15.44 67.328 15.344C67.424 15.248 67.556 15.2 67.724 15.2C67.888 15.2 68.006 15.242 68.078 15.326C68.154 15.406 68.216 15.528 68.264 15.692C68.312 15.812 68.392 15.892 68.504 15.932C68.62 15.972 68.788 15.992 69.008 15.992H70.976C71.288 15.992 71.498 15.942 71.606 15.842C71.714 15.738 71.768 15.524 71.768 15.2C71.768 14.88 71.714 14.668 71.606 14.564C71.498 14.46 71.288 14.408 70.976 14.408H69.044C68.468 14.408 68.034 14.262 67.742 13.97C67.45 13.678 67.304 13.244 67.304 12.668C67.304 12.08 67.446 11.642 67.73 11.354C68.018 11.062 68.456 10.916 69.044 10.916H70.916C71.856 10.916 72.412 11.312 72.584 12.104C72.616 12.272 72.584 12.402 72.488 12.494C72.392 12.586 72.26 12.632 72.092 12.632C71.936 12.632 71.82 12.592 71.744 12.512C71.668 12.428 71.608 12.312 71.564 12.164C71.516 12.068 71.442 12.004 71.342 11.972C71.246 11.94 71.104 11.924 70.916 11.924H69.044C68.74 11.924 68.542 11.97 68.45 12.062C68.358 12.154 68.312 12.356 68.312 12.668C68.312 12.956 68.36 13.15 68.456 13.25C68.556 13.35 68.752 13.4 69.044 13.4H70.976C71.576 13.4 72.026 13.55 72.326 13.85C72.626 14.15 72.776 14.6 72.776 15.2C72.776 15.804 72.626 16.256 72.326 16.556C72.026 16.852 71.576 17 70.976 17H69.008ZM75.42 17C75.084 17 74.916 16.832 74.916 16.496V9.056C74.916 8.72 75.084 8.552 75.42 8.552C75.756 8.552 75.924 8.72 75.924 9.056V11.618C76.348 11.15 76.972 10.916 77.796 10.916H78.132C78.932 10.916 79.524 11.108 79.908 11.492C80.292 11.876 80.484 12.468 80.484 13.268V16.496C80.484 16.832 80.316 17 79.98 17C79.644 17 79.476 16.832 79.476 16.496V13.268C79.476 12.744 79.38 12.39 79.188 12.206C79 12.018 78.648 11.924 78.132 11.924H77.796C77.316 11.924 76.898 11.98 76.542 12.092C76.186 12.2 75.98 12.372 75.924 12.608V16.496C75.924 16.832 75.756 17 75.42 17ZM84.9253 17C84.1293 17 83.5373 16.808 83.1493 16.424C82.7653 16.04 82.5733 15.452 82.5733 14.66V13.268C82.5733 12.464 82.7653 11.872 83.1493 11.492C83.5373 11.108 84.1293 10.916 84.9253 10.916H85.9093C86.7093 10.916 87.3013 11.108 87.6853 11.492C88.0693 11.876 88.2613 12.468 88.2613 13.268V14.648C88.2613 15.444 88.0693 16.036 87.6853 16.424C87.3013 16.808 86.7093 17 85.9093 17H84.9253ZM83.5813 14.66C83.5813 15.176 83.6753 15.528 83.8633 15.716C84.0513 15.9 84.4053 15.992 84.9253 15.992H85.9093C86.4333 15.992 86.7873 15.898 86.9713 15.71C87.1593 15.522 87.2533 15.168 87.2533 14.648V13.268C87.2533 12.744 87.1593 12.39 86.9713 12.206C86.7873 12.018 86.4333 11.924 85.9093 11.924H84.9253C84.5773 11.924 84.3053 11.964 84.1093 12.044C83.9173 12.12 83.7813 12.256 83.7013 12.452C83.6213 12.644 83.5813 12.916 83.5813 13.268V14.66ZM90.9708 19.4C90.6348 19.4 90.4668 19.232 90.4668 18.896V11.42C90.4668 11.084 90.6348 10.916 90.9708 10.916C91.3068 10.916 91.4748 11.084 91.4748 11.42V11.57C91.6908 11.354 91.9568 11.192 92.2728 11.084C92.5928 10.972 92.9508 10.916 93.3468 10.916H93.8028C94.6028 10.916 95.1948 11.108 95.5788 11.492C95.9628 11.876 96.1548 12.468 96.1548 13.268V14.648C96.1548 15.444 95.9628 16.036 95.5788 16.424C95.1948 16.808 94.6028 17 93.8028 17H91.4748V18.896C91.4748 19.232 91.3068 19.4 90.9708 19.4ZM91.4748 15.992H93.8028C94.3268 15.992 94.6808 15.898 94.8648 15.71C95.0528 15.522 95.1468 15.168 95.1468 14.648V13.268C95.1468 12.744 95.0528 12.39 94.8648 12.206C94.6808 12.018 94.3268 11.924 93.8028 11.924H93.3468C92.8468 11.924 92.4148 11.984 92.0508 12.104C91.6868 12.224 91.4948 12.414 91.4748 12.674V15.992Z" fill="black"/>
<path d="M4.5 5.5H18.5V19.5H4.5V5.5Z" fill="white" stroke="black"/>
<path d="M6.5 7.5H16.5V17.5H6.5V7.5Z" fill="black"/>
<line x1="4.34023" y1="5.6336" x2="18.3402" y2="18.6336" stroke="black"/>
</svg>
