<svg width="100" height="54" viewBox="0 0 69 54" fill="none" xmlns="http://www.w3.org/2000/svg">
<path d="M63.7324 14C63.7324 19.5228 59.2552 24 53.7324 24C48.2095 24 43.7324 19.5228 43.7324 14C43.7324 8.47715 48.2095 4 53.7324 4C59.2552 4 63.7324 8.47715 63.7324 14Z" fill="black"/>
<path d="M48.4247 19.4093C47.3686 18.6735 46.7324 17 46.7324 17L57.7324 18.2046C57.7324 18.2046 51.065 21.2488 48.4247 19.4093Z" fill="white" stroke="white"/>
<path d="M25.831 15C25.831 20.5228 21.3538 25 15.831 25C10.3081 25 5.83099 20.5228 5.83099 15C5.83099 9.47715 10.3081 5 15.831 5C21.3538 5 25.831 9.47715 25.831 15Z" fill="black"/>
<path d="M21.1565 19.8699C22.248 19.1876 22.9668 17.5479 22.9668 17.5479L11.9204 18.2031C11.9204 18.2031 18.4279 21.5756 21.1565 19.8699Z" fill="white" stroke="white"/>
<path d="M5.83099 35.7183C5.83099 30.351 10.182 26 15.5493 26V26C20.9166 26 25.2676 30.351 25.2676 35.7183V41H5.83099V35.7183Z" fill="black"/>
<path d="M43.7324 34.7183C43.7324 29.351 48.0834 25 53.4507 25V25C58.818 25 63.169 29.351 63.169 34.7183V40H43.7324V34.7183Z" fill="black"/>
<mask id="path-7-inside-1_5_43" fill="white">
<path d="M31.8752 25.3688C32.3041 24.0606 33.7062 23.366 35.0069 23.8175L51.8262 29.6559L50.273 34.3936L33.4536 28.5552C32.153 28.1037 31.4463 26.6771 31.8752 25.3688V25.3688Z"/>
</mask>
<path d="M31.8752 25.3688C32.3041 24.0606 33.7062 23.366 35.0069 23.8175L51.8262 29.6559L50.273 34.3936L33.4536 28.5552C32.153 28.1037 31.4463 26.6771 31.8752 25.3688V25.3688Z" fill="black"/>
<path d="M31.4807 24.9673C31.9526 23.5278 33.4953 22.7636 34.9264 23.2604L51.982 29.1808L51.6704 30.131L34.8511 24.2926C33.8113 23.9317 32.6904 24.4869 32.3475 25.5328L31.4807 24.9673ZM50.273 34.3936L31.0986 27.7377L50.273 34.3936ZM33.2175 28.4732C31.7864 27.9764 31.0088 26.4068 31.4807 24.9673C31.9526 23.5278 33.4953 22.7636 34.9264 23.2604L34.8511 24.2926C33.8113 23.9317 32.6904 24.4869 32.3475 25.5328C31.9186 26.8411 32.4139 28.1942 33.4536 28.5552L33.2175 28.4732ZM51.8262 29.6559L50.273 34.3936L51.8262 29.6559Z" fill="white" mask="url(#path-7-inside-1_5_43)"/>
<path d="M40.3169 30.8095C40.3169 34.3698 37.8602 37.119 34.9859 37.119C32.1116 37.119 29.6549 34.3698 29.6549 30.8095C29.6549 27.2493 32.1116 24.5 34.9859 24.5C37.8602 24.5 40.3169 27.2493 40.3169 30.8095Z" stroke="#FF0000"/>
<rect x="25" y="31" width="20" height="15" rx="2" fill="#FF0000"/>
</svg>
